<svg xmlns="http://www.w3.org/2000/svg" xml:space="preserve" viewBox="0 0 738.826 512"><path d="M515.72 260c-22.09 0-40-17.909-40-40s17.91-40 40-40c22.091 0 40 17.909 40 40s-17.909 40-40 40zm-148 0c-22.09 0-40-17.909-40-40s17.91-40 40-40c22.091 0 40 17.909 40 40s-17.909 40-40 40zm-148 0c-22.09 0-40-17.909-40-40s17.91-40 40-40c22.091 0 40 17.909 40 40s-17.909 40-40 40z"/><path d="M678.826 0H60C26.863 0 0 26.863 0 60v320c0 33.137 26.863 60 60 60h229.016a20 20 0 0 1 16.641 8.906l30.97 46.453a37.371 37.371 0 0 0 62.187 0l30.97-46.453a20 20 0 0 1 16.64-8.906h232.402c33.137 0 60-26.863 60-60V60c0-33.137-26.863-60-60-60z"/></svg>