<?xml version="1.0" encoding="UTF-8" standalone="no"?>
<svg
   xmlns:dc="http://purl.org/dc/elements/1.1/"
   xmlns:cc="http://creativecommons.org/ns#"
   xmlns:rdf="http://www.w3.org/1999/02/22-rdf-syntax-ns#"
   xmlns:svg="http://www.w3.org/2000/svg"
   xmlns="http://www.w3.org/2000/svg"
   xmlns:sodipodi="http://sodipodi.sourceforge.net/DTD/sodipodi-0.dtd"
   xmlns:inkscape="http://www.inkscape.org/namespaces/inkscape"
   inkscape:version="1.0 (4035a4fb49, 2020-05-01)"
   sodipodi:docname="profile_silhouette.svg"
   viewBox="0 0 199.2101 237.57923"
   height="237.57922"
   width="199.2101"
   id="svg10"
   version="1.1">
  <metadata
     id="metadata16">
    <rdf:RDF>
      <cc:Work
         rdf:about="">
        <dc:format>image/svg+xml</dc:format>
        <dc:type
           rdf:resource="http://purl.org/dc/dcmitype/StillImage" />
        <dc:title></dc:title>
      </cc:Work>
    </rdf:RDF>
  </metadata>
  <defs
     id="defs14" />
  <sodipodi:namedview
     inkscape:current-layer="g18"
     inkscape:window-maximized="1"
     inkscape:window-y="-4"
     inkscape:window-x="-8"
     inkscape:cy="97.995534"
     inkscape:cx="10.453586"
     inkscape:zoom="3.1955778"
     showgrid="false"
     id="namedview12"
     inkscape:window-height="1027"
     inkscape:window-width="1920"
     inkscape:pageshadow="2"
     inkscape:pageopacity="0"
     guidetolerance="10"
     gridtolerance="10"
     objecttolerance="10"
     borderopacity="1"
     bordercolor="#666666"
     pagecolor="#ffffff" />
  <g
     transform="translate(-122.87974,-35.337794)"
     id="g18"
     inkscape:label="Image"
     inkscape:groupmode="layer">
    <path
       id="path22"
       d="m 148.78307,271.04121 c -6.63912,-2.36812 -14.41732,-7.82368 -17.93169,-12.57712 -7.36524,-9.96203 -9.35835,-22.15537 -7.08018,-43.31488 4.21831,-39.17936 20.35361,-61.81029 45.95296,-64.45238 7.25074,-0.74834 7.90469,-0.53892 18.48909,5.92098 26.69193,16.2907 43.25044,16.04003 70.30583,-1.06432 8.15827,-5.15763 9.12083,-5.44034 16.40868,-4.81931 20.23406,1.72426 35.0673,16.60727 42.19813,42.33971 3.35433,12.10452 5.83432,35.74539 4.67436,44.5592 -1.98644,15.09376 -11.50063,27.89509 -24.28799,32.67945 -6.75096,2.52587 -10.38794,2.6511 -75.37653,2.5954 -53.97842,-0.0463 -69.34531,-0.43733 -73.35266,-1.86673 z m 59.29025,-122.7866 c -16.46818,-3.5745 -30.62065,-14.98049 -38.58649,-31.09827 -4.83302,-9.77896 -4.96775,-10.45309 -4.96775,-24.856534 0,-14.426957 0.12797,-15.063909 5.01224,-24.946548 8.65797,-17.518203 24.81416,-29.345492 43.09208,-31.545946 41.78504,-5.03044 74.20939,31.138776 63.83923,71.212358 -5.48119,21.18102 -23.45048,37.81118 -45.18843,41.82082 -9.75419,1.79919 -12.53619,1.72894 -23.20088,-0.58588 z"
       style="fill:#000000;stroke-width:1.33333" />
  </g>
</svg>
